<svg width="28" height="28" viewBox="0 0 28 28" fill="none" xmlns="http://www.w3.org/2000/svg">
<g clip-path="url(#clip0_440_26)">
<path d="M19.25 0H8.75C6.42936 0 4.20376 0.921872 2.56282 2.56282C0.921872 4.20376 0 6.42936 0 8.75L0 19.25C0 21.5706 0.921872 23.7962 2.56282 25.4372C4.20376 27.0781 6.42936 28 8.75 28H19.25C21.5706 28 23.7962 27.0781 25.4372 25.4372C27.0781 23.7962 28 21.5706 28 19.25V8.75C28 6.42936 27.0781 4.20376 25.4372 2.56282C23.7962 0.921872 21.5706 0 19.25 0ZM25.375 19.25C25.375 22.6275 22.6275 25.375 19.25 25.375H8.75C5.3725 25.375 2.625 22.6275 2.625 19.25V8.75C2.625 5.3725 5.3725 2.625 8.75 2.625H19.25C22.6275 2.625 25.375 5.3725 25.375 8.75V19.25Z" fill="#252525"/>
<path d="M14 7C12.1435 7 10.363 7.7375 9.05025 9.05025C7.7375 10.363 7 12.1435 7 14C7 15.8565 7.7375 17.637 9.05025 18.9497C10.363 20.2625 12.1435 21 14 21C15.8565 21 17.637 20.2625 18.9497 18.9497C20.2625 17.637 21 15.8565 21 14C21 12.1435 20.2625 10.363 18.9497 9.05025C17.637 7.7375 15.8565 7 14 7ZM14 18.375C12.8401 18.3736 11.7281 17.9122 10.9079 17.0921C10.0878 16.2719 9.62639 15.1599 9.625 14C9.625 11.5868 11.5885 9.625 14 9.625C16.4115 9.625 18.375 11.5868 18.375 14C18.375 16.4115 16.4115 18.375 14 18.375Z" fill="#252525"/>
<path d="M21.5255 7.40777C22.0407 7.40777 22.4583 6.99016 22.4583 6.47502C22.4583 5.95987 22.0407 5.54227 21.5255 5.54227C21.0104 5.54227 20.5928 5.95987 20.5928 6.47502C20.5928 6.99016 21.0104 7.40777 21.5255 7.40777Z" fill="#252525"/>
</g>
<defs>
<clipPath id="clip0_440_26">
<rect width="28" height="28" fill="white"/>
</clipPath>
</defs>
</svg>
