<svg width="139" height="59" viewBox="0 0 139 59" fill="none" xmlns="http://www.w3.org/2000/svg">
<g id="Group 3609">
<path id="Vector 14" d="M32.7773 2C26.0565 6.24477 18.06 9.5 8.5329 20.9695C5.91885 24.1165 2.74179 28.4161 2.15903 32.6411C-0.569681 52.4243 32.6067 44.4145 41.0644 40.5878C47.6415 37.6119 65.1977 27.6759 64.9871 17.9895C64.9041 14.1718 61.1874 14.3413 58.1994 14.9268C49.7206 16.5881 42.5817 22.0326 38.0845 29.33C35.8833 32.9018 32.3588 40.5886 35.8495 44.6439C40.9304 50.5467 56.2276 42.2578 61.2621 39.5117C63.516 38.2823 65.7671 35.7131 67.9671 38.1044C69.612 39.8924 72.0576 41.9357 74.2773 42C80.666 42.1852 87.0311 39.3293 93.2142 37.4422C97.8073 36.0404 95.7608 36.1676 98.5948 37.9389C101.293 39.6256 105.618 36.1668 107.452 37.4422C108.153 37.9298 107.684 39.1253 108.611 39.5117C110.675 40.3718 114.358 38.5244 116.061 37.7733C117.436 37.1671 123.286 32.6952 123.842 34.1311C125.351 38.0305 133.836 35.0095 136.507 34.545" stroke="black" stroke-width="3" stroke-linecap="round"/>
<path id="Vector 15" d="M32.208 56.8949C55.6944 56.2425 78.8042 50.1645 102.238 48.7" stroke="black" stroke-width="3" stroke-linecap="round"/>
</g>
</svg>
